<svg xmlns="http://www.w3.org/2000/svg" width="270.971" height="73.827" viewBox="0 0 270.971 73.827"><g transform="translate(-34 -28.286)"><rect width="224.491" height="17.14" transform="translate(57.24 84.973)" fill="#002e49"/><g transform="translate(35.427 48.43)"><path d="M57.194,84.192a10.455,10.455,0,0,1-9.4,5.926c-7.151,0-11.525-6.661-11.525-14.917s4.454-14.875,11.606-14.875c4.823,0,8.3,2.983,10.094,7.519l-1.635.613c-1.553-3.964-4.454-6.58-8.46-6.58-5.966,0-9.808,5.926-9.808,13.323s3.76,13.364,9.727,13.364c3.474,0,6.13-1.962,7.764-5.067Z" transform="translate(-36.27 -60.326)" fill="#002e49"/><path d="M78.26,89.9V61.17H95.506v1.554H79.976V74.084H91.787v1.553H79.976v12.71H96.323V89.9Z" transform="translate(-51.861 -60.639)" fill="#002e49"/><path d="M132.652,89.9l-16.8-25.991V89.9h-1.716V61.17h1.88L132.856,87.2V61.17h1.717V89.9Z" transform="translate(-65.183 -60.639)" fill="#002e49"/><path d="M161.884,89.9V62.724h-8.745V61.17h19.248v1.513H163.6V89.9Z" transform="translate(-79.663 -60.639)" fill="#002e49"/><path d="M207.949,89.9,199.9,77.027H191.97V89.9h-1.716V61.17h12.014c4.618,0,7.6,3.6,7.6,7.929a7.685,7.685,0,0,1-7.929,7.929L209.993,89.9Zm-5.8-14.426c3.637,0,5.926-2.9,5.926-6.375s-2.288-6.375-5.926-6.375H191.97v12.75Z" transform="translate(-93.444 -60.639)" fill="#002e49"/><path d="M246.511,89.9l-2.942-8.3H230.614l-2.943,8.3h-1.8l10.258-28.73h1.921L248.309,89.9Zm-9.44-26.645L231.1,80.133h11.974Z" transform="translate(-106.669 -60.639)" fill="#002e49"/><path d="M267.732,89.9V61.17h1.717V88.347H284.12V89.9Z" transform="translate(-122.211 -60.639)" fill="#002e49"/><path d="M297.667,89.9V62.724h-8.745V61.17H308.17v1.513h-8.787V89.9Z" transform="translate(-130.079 -60.639)" fill="#2887c1"/><path d="M326.037,89.9V61.17h17.245v1.554H327.754V74.084h11.81v1.553h-11.81v12.71H344.1V89.9Z" transform="translate(-143.86 -60.639)" fill="#2887c1"/><path d="M377.1,89.9l-8.419-14.181L360.3,89.9H358.34l9.114-15.325-7.969-13.4H361.4l7.274,12.26L376,61.17h1.921l-8.01,13.4L379.06,89.9Z" transform="translate(-155.854 -60.639)" fill="#2887c1"/><path d="M414.532,89.9l-2.942-8.3H398.635l-2.942,8.3h-1.8l10.259-28.73h1.921L416.331,89.9Zm-9.441-26.645-5.966,16.878H411.1Z" transform="translate(-169.055 -60.639)" fill="#2887c1"/><path d="M434.991,83.048a7.783,7.783,0,0,0,7.724,5.517c4.618,0,7.356-2.493,7.356-6.416,0-2.615-2.043-4.7-8.542-7.07-5.64-2.044-7.6-4.414-7.6-7.765,0-4.7,3.883-6.988,8.665-6.988a10.414,10.414,0,0,1,9.114,4.822l-1.349,1.063a8.887,8.887,0,0,0-7.888-4.332c-3.637,0-6.742,1.717-6.742,5.272,0,3.065,1.675,4.454,6.865,6.457,7.233,2.779,9.276,5.272,9.276,8.705,0,4.986-4.046,7.805-9.236,7.805-3.964,0-7.274-1.88-9.155-6.171Z" transform="translate(-183.753 -60.326)" fill="#2887c1"/></g><g transform="translate(60.705 88.789)"><path d="M79.285,134.616c-2.183,0-2.809-1.449-2.809-3.616v-6.321h1.4V131c0,1.3.1,2.459,1.4,2.459S80.69,132.3,80.69,131v-6.321h1.4V131C82.095,133.168,81.469,134.616,79.285,134.616Z" transform="translate(-76.476 -124.58)" fill="#fff"/><path d="M92.548,129.6l1.58,4.916H92.734l-1.416-4.565H90.265v4.565H88.86v-9.833h1.756c2,0,3.161.68,3.161,2.634A2.18,2.18,0,0,1,92.548,129.6Zm-1.932-3.863h-.351v3.16h.351c1.136,0,1.756-.434,1.756-1.581S91.752,125.733,90.616,125.733Z" transform="translate(-81.074 -124.58)" fill="#fff"/><path d="M104.547,127.726v3.567c0,1.975-.714,3.26-2.712,3.26-2.014,0-2.71-1.257-2.71-3.26v-3.567c0-2,.7-3.205,2.71-3.205C103.833,124.521,104.547,125.751,104.547,127.726Zm-4.017-.351v4.27c0,1.053.253,1.756,1.306,1.756s1.307-.7,1.307-1.756v-4.27c0-1.054-.253-1.7-1.307-1.7S100.53,126.321,100.53,127.375Z" transform="translate(-84.886 -124.521)" fill="#fff"/><path d="M114.974,130.941v-.351h-1.405v-1.042h2.81v4.905h-1.054l-.351-1.053a1.491,1.491,0,0,1-1.405,1.152c-2.293,0-2.809-1.613-2.809-3.929v-2.491c0-2.113.752-3.611,2.864-3.611,1.965,0,2.672,1.284,2.672,3.26h-1.4c0-1.2-.093-2.107-1.267-2.107s-1.46.91-1.46,2.107v3.16c0,1.3.192,2.459,1.4,2.459S114.974,132.226,114.974,130.941Z" transform="translate(-89.206 -124.521)" fill="#fff"/><path d="M123.8,131.351l-2.107-6.672H123.1l1.4,4.916,1.4-4.916h1.405l-2.107,6.672v3.16h-1.4Z" transform="translate(-93.266 -124.58)" fill="#fff"/><path d="M134.466,127.971v6.54h-1.405v-9.833h1.054l2.458,6.08v-6.08h1.405v9.833h-1Z" transform="translate(-97.486 -124.58)" fill="#fff"/><path d="M145.857,129.947v3.512h2.459v1.053h-3.863v-9.833h3.863v1.054h-2.459v3.16h1.756v1.054Z" transform="translate(-101.715 -124.58)" fill="#fff"/><path d="M155.724,134.553c-2.112,0-2.7-1.5-2.7-3.616v-2.8c0-2.113.588-3.611,2.7-3.611,1.981,0,2.618,1.284,2.618,3.26h-1.4c0-1.2-.039-2.107-1.213-2.107s-1.295.91-1.295,2.107v3.512c0,1.075.225,2.107,1.295,2.107s1.213-1.032,1.213-2.107v-.351h1.4v.351C158.342,133.246,157.694,134.553,155.724,134.553Z" transform="translate(-104.898 -124.521)" fill="#fff"/><path d="M169.443,127.726v3.567c0,1.975-.712,3.26-2.71,3.26-2.014,0-2.711-1.257-2.711-3.26v-3.567c0-2,.7-3.205,2.711-3.205C168.731,124.521,169.443,125.751,169.443,127.726Zm-4.016-.351v4.27c0,1.053.252,1.756,1.306,1.756s1.306-.7,1.306-1.756v-4.27c0-1.054-.252-1.7-1.306-1.7S165.427,126.321,165.427,127.375Z" transform="translate(-108.982 -124.521)" fill="#fff"/><path d="M175.936,124.679h1.405v8.78H179.8v1.053h-3.863Z" transform="translate(-113.405 -124.58)" fill="#fff"/><path d="M189.6,127.726v3.567c0,1.975-.714,3.26-2.712,3.26-2.014,0-2.71-1.257-2.71-3.26v-3.567c0-2,.7-3.205,2.71-3.205C188.886,124.521,189.6,125.751,189.6,127.726Zm-4.017-.351v4.27c0,1.053.251,1.756,1.305,1.756s1.306-.7,1.306-1.756v-4.27c0-1.054-.253-1.7-1.306-1.7S185.583,126.321,185.583,127.375Z" transform="translate(-116.466 -124.521)" fill="#fff"/><path d="M200.027,130.941v-.351h-1.405v-1.042h2.81v4.905h-1.054l-.351-1.053a1.492,1.492,0,0,1-1.405,1.152c-2.294,0-2.81-1.613-2.81-3.929v-2.491c0-2.113.752-3.611,2.865-3.611,1.964,0,2.672,1.284,2.672,3.26h-1.4c0-1.2-.094-2.107-1.267-2.107s-1.46.91-1.46,2.107v3.16c0,1.3.192,2.459,1.4,2.459S200.027,132.226,200.027,130.941Z" transform="translate(-120.785 -124.521)" fill="#fff"/><path d="M208.855,131.351l-2.107-6.672h1.4l1.405,4.916,1.4-4.916h1.4l-2.107,6.672v3.16h-1.4Z" transform="translate(-124.846 -124.58)" fill="#fff"/><path d="M222.855,134.512h-1.4l2.107-9.833h1.4l2.107,9.833h-1.405l-.527-2.458h-1.756Zm1.405-7.726-.7,4.214h1.4Z" transform="translate(-130.305 -124.58)" fill="#fff"/><path d="M234.308,127.971v6.54H232.9v-9.833h1.054l2.458,6.08v-6.08h1.405v9.833h-1Z" transform="translate(-134.557 -124.58)" fill="#fff"/><path d="M246.461,134.512h-2.168v-9.833h2.178c2.058,0,2.81.746,2.81,2.81v3.863C249.281,133.442,248.557,134.512,246.461,134.512Zm-.016-8.779H245.7v7.726h.774c1.487,0,1.4-1.01,1.4-2.459v-3.16C247.876,126.5,247.838,125.733,246.444,125.733Z" transform="translate(-138.786 -124.58)" fill="#fff"/><path d="M262.333,134.553c-2.113,0-2.7-1.5-2.7-3.616v-2.8c0-2.113.587-3.611,2.7-3.611,1.981,0,2.617,1.284,2.617,3.26h-1.405c0-1.2-.038-2.107-1.212-2.107s-1.3.91-1.3,2.107v3.512c0,1.075.225,2.107,1.3,2.107s1.212-1.032,1.212-2.107v-.351h1.405v.351C264.95,133.246,264.3,134.553,262.333,134.553Z" transform="translate(-144.482 -124.521)" fill="#fff"/><path d="M276.052,127.726v3.567c0,1.975-.714,3.26-2.711,3.26-2.014,0-2.71-1.257-2.71-3.26v-3.567c0-2,.7-3.205,2.71-3.205C275.339,124.521,276.052,125.751,276.052,127.726Zm-4.017-.351v4.27c0,1.053.253,1.756,1.306,1.756s1.306-.7,1.306-1.756v-4.27c0-1.054-.252-1.7-1.306-1.7S272.035,126.321,272.035,127.375Z" transform="translate(-148.565 -124.521)" fill="#fff"/><path d="M283.95,127.971v6.54h-1.4v-9.833H283.6l2.458,6.08v-6.08h1.4v9.833h-1Z" transform="translate(-152.989 -124.58)" fill="#fff"/><path d="M297.7,125.929h-1.756v8.582h-1.4v-8.582h-1.756v-1.25H297.7Z" transform="translate(-156.79 -124.58)" fill="#fff"/><path d="M304.531,124.679v9.833h-1.4v-9.833Z" transform="translate(-160.631 -124.58)" fill="#fff"/><path d="M310.5,127.971v6.54h-1.4v-9.833h1.054l2.458,6.08v-6.08h1.4v9.833h-1Z" transform="translate(-162.845 -124.58)" fill="#fff"/><path d="M321.886,129.947v3.512h2.458v1.053h-3.863v-9.833h3.863v1.054h-2.458v3.16h1.756v1.054Z" transform="translate(-167.075 -124.58)" fill="#fff"/><path d="M330.737,127.971v6.54h-1.4v-9.833h1.054l2.458,6.08v-6.08h1.4v9.833h-1Z" transform="translate(-170.361 -124.58)" fill="#fff"/><path d="M343.143,134.553c-2.112,0-2.7-1.5-2.7-3.616v-2.8c0-2.113.589-3.611,2.7-3.611,1.981,0,2.618,1.284,2.618,3.26h-1.4c0-1.2-.04-2.107-1.213-2.107s-1.3.91-1.3,2.107v3.512c0,1.075.226,2.107,1.3,2.107s1.213-1.032,1.213-2.107v-.351h1.4v.351C345.761,133.246,345.113,134.553,343.143,134.553Z" transform="translate(-174.486 -124.521)" fill="#fff"/><path d="M353.125,129.947v3.512h2.458v1.053h-3.863v-9.833h3.863v1.054h-2.458v3.16h1.756v1.054Z" transform="translate(-178.674 -124.58)" fill="#fff"/><path d="M367.386,134.553c-2.112,0-2.7-1.5-2.7-3.616v-2.8c0-2.113.587-3.611,2.7-3.611,1.982,0,2.618,1.284,2.618,3.26h-1.4c0-1.2-.038-2.107-1.213-2.107s-1.294.91-1.294,2.107v3.512c0,1.075.224,2.107,1.294,2.107s1.213-1.032,1.213-2.107v-.351H370v.351C370,133.246,369.357,134.553,367.386,134.553Z" transform="translate(-183.488 -124.521)" fill="#fff"/><path d="M377.369,129.947v3.512h2.458v1.053h-3.863v-9.833h3.863v1.054h-2.458v3.16h1.756v1.054Z" transform="translate(-187.676 -124.58)" fill="#fff"/><path d="M386.221,127.971v6.54h-1.405v-9.833h1.054l2.458,6.08v-6.08h1.405v9.833h-1Z" transform="translate(-190.962 -124.58)" fill="#fff"/><path d="M399.971,125.929h-1.756v8.582h-1.4v-8.582h-1.756v-1.25h4.916Z" transform="translate(-194.764 -124.58)" fill="#fff"/><path d="M406.7,129.947v3.512h2.458v1.053h-3.863v-9.833h3.863v1.054H406.7v3.16h1.756v1.054Z" transform="translate(-198.565 -124.58)" fill="#fff"/><path d="M417.834,129.6l1.58,4.916h-1.393l-1.416-4.565h-1.054v4.565h-1.405v-9.833H415.9c2,0,3.161.68,3.161,2.634A2.179,2.179,0,0,1,417.834,129.6Zm-1.932-3.863h-.351v3.16h.351c1.136,0,1.756-.434,1.756-1.581S417.038,125.733,415.9,125.733Z" transform="translate(-201.852 -124.58)" fill="#fff"/></g><g transform="translate(57.24 37.295)"><line x2="97.219" fill="#002e49" stroke="#002e49" stroke-miterlimit="10" stroke-width="0.75"/><line x2="97.218" transform="translate(127.273)" fill="#002e49" stroke="#002e49" stroke-miterlimit="10" stroke-width="0.75"/></g><g transform="translate(34 91.622)"><g transform="translate(6.081)"><line x2="15.094" fill="#002e49" stroke="#002e49" stroke-miterlimit="10" stroke-width="1"/></g><g transform="translate(0 1.941)"><line x2="21.175" fill="#002e49" stroke="#002e49" stroke-miterlimit="10" stroke-width="1"/></g><g transform="translate(6.081 3.882)"><line x2="15.094" fill="#002e49" stroke="#002e49" stroke-miterlimit="10" stroke-width="1"/></g><g transform="translate(249.796)"><line x1="15.094" fill="#002e49" stroke="#002e49" stroke-miterlimit="10" stroke-width="1"/><g transform="translate(0 1.941)"><line x1="21.175" fill="#002e49" stroke="#002e49" stroke-miterlimit="10" stroke-width="1"/></g><g transform="translate(0 3.882)"><line x1="15.094" fill="#002e49" stroke="#002e49" stroke-miterlimit="10" stroke-width="1"/></g></g></g><g transform="translate(162.696 28.286)"><path d="M245.488,38.178l-4.2,3.033,1.579-4.924-4.17-3.056,5.172-.019,1.615-4.926,1.613,4.926,5.179.019L248.1,36.287l1.583,4.924Z" transform="translate(-238.701 -28.286)" fill="#002e49"/></g></g></svg>