<svg xmlns="http://www.w3.org/2000/svg" width="252.251" height="40.7" viewBox="0 0 252.251 40.7"><g transform="translate(-565 -3299.945)"><path d="M-85.774-104.564h16.356l5.1-15.519,5.021,15.519h16.356l-13.237,9.585,5.021,15.6-13.161-9.585-13.237,9.585,5.021-15.6Z" transform="translate(650.773 3420.029)" fill="#fff"/><path d="M-85.774-104.564h16.356l5.1-15.519,5.021,15.519h16.356l-13.237,9.585,5.021,15.6-13.161-9.585-13.237,9.585,5.021-15.6Z" transform="translate(703.129 3420.029)" fill="#fff"/><path d="M-85.774-104.564h16.356l5.1-15.519,5.021,15.519h16.356l-13.237,9.585,5.021,15.6-13.161-9.585-13.237,9.585,5.021-15.6Z" transform="translate(755.484 3420.029)" fill="#fff"/><path d="M-85.774-104.564h16.356l5.1-15.519,5.021,15.519h16.356l-13.237,9.585,5.021,15.6-13.161-9.585-13.237,9.585,5.021-15.6Z" transform="translate(807.839 3420.029)" fill="#fff"/><path d="M-85.774-104.564h16.356l5.1-15.519,5.021,15.519h16.356l-13.237,9.585,5.021,15.6-13.161-9.585-13.237,9.585,5.021-15.6Z" transform="translate(860.194 3420.029)" fill="#fff"/></g></svg>